<?xml version="1.0" encoding="UTF-8"?>
<svg
    id="Capa_4"
    data-name="Capa 4"
    xmlns="http://www.w3.org/2000/svg"
    viewBox="0 0 1366 768"
>

    <defs>

        <style>

            .cls-1 {
                fill: none;
                stroke: #b3b3b3;
                stroke-width: 1;
                stroke-miterlimit: 10;
                stroke-linecap: round;
                stroke-linejoin: round;
                stroke-dasharray: 1.03;
                stroke-dashoffset: 1.03;
                animation: dibujar-departamento 3.5s linear forwards;
            }

            @keyframes dibujar-departamento {

                0% {
                    stroke-dashoffset: 1.03;
                }

                100% {
                    stroke-dashoffset: 0;
                }

            }

        </style>

    </defs>

    <path
        id="suchitepequez"
        class="cls-1"
        pathLength="1"
        d="M539.91,581.91c.14-.03.23-1.09.23-1.09-.03-.33-1.07-.34-1.24-.6s1.19-1.09,1.24-1.43-.57-.88-.58-1,.7-.22.7-.22c.95-.47,2.41-1.84,2.41-1.84.06-1.39.4-2.04.4-2.04,1.95-.96,1.72-1.29,1.74-2.18s.13-1.33.13-1.33c0,0,2.94-2.06,2.96-2.77s.48-1.58.59-1.72.53-.73.55-.94-.48-.36-.51-.66.84-.81.62-1.11-.54-1.08-.54-1.08c.7-1.47.39-1.36.39-1.36-.91-1.04-.12-1.2-.12-1.2.01-1.66-.94-1.57-.94-1.57-1.46.21-.41-.56-.41-.56,1.24-.58.88-.42,1-1.34s-.27-.73-.74-.7-.45-.76-.45-.76c-.59-.77-.02-.71.6-.77s1.3-1.24,1.48-1.46,1.11-1.05,1.2.77.03,3.08.41,3.15,2.28-.75,2.49-.86,1.01-.66,1.78-1.49.98-.49,1.9-.42.47-.78.38-1.34-.13-1.14-.04-1.32,1.1,1.54,1.29,1.68,1.51-.95,2.01-1.28,1.1-.29,1.33-.28,1.11,1.2,1.42,1.25.71-1.1,1.32-1.4,1.36.28,1.56.3.37-.55.53-.8.99-.2,1.21.03-.29,1.3-.53,2.14.03,1.03.18,1.19,1.91.72,3.76.72,3.63.86,3.63.86c0,0-2.22,8.34-2.06,8.85s2.75,1,3.21,1.02.67.16.79.24.12-.28.17-.39,1.27-.37,1.28-.75.19-1.66.19-1.66c1.36-.71,1.35-2.08,1.38-2.33s.39-.65-.08-1.45.42-.64.01-1.27-.36-1.54.27-1.71.48-.48.35-1.34,1.38-2.47,1.47-2.52.31.32.69.17.43-.6-.02-1.59,0-1.31.11-1.65-.47-1.02-.6-1.26-.04-.66-.49-1.35.39-.94.99-.99,1.66-2.52,1.99-2.9,1.14-.44,1.04-.74.35-1.14.64-2.86-1.53-1.43-2.62-1.43-1.28,0-.83-.84.99-3.41.79-3.85-.44-1.38-.44-1.73-.35-.79-.64-.99.49-1.63-.3-2.27-2.22-.54-3.11-.79-3.7-2.81-4.49-2.86-.99.59-1.58,1.48-1.73,1.38-2.07,1.38-1.04.74-1.93,1.58-.54.2-.54.94.15,1.04-.69,1.09-.4-.69-.84-1.14,1.14-1.18.79-1.38-1.18-1.63-1.33-1.97-.89-.84-1.21-.94-.37-.79-.12-.99.05-1.63,0-2.17-.49-.44-.99-.44-2.22-.99-2.72-1.78,1.93-1.18,1.38-1.33-.44-1.33-.99-1.48-1.58,1.48-1.88,1.53-.99-1.23-1.38-1.83-.69.79-1.28.94-.59.35-1.33.59-.49.05-1.63-.79c-1.14-.84-1.14-.15-1.97-.1s-1.33.1-1.78.94-1.09,1.14-1.23,1.63-.94,2.17-.94,2.17c0,0-2.72-.44-3.55-.49s-.94.99-1.09,1.09-.89-.74-1.18-1.18,2.76-4.74,2.81-5.38-.39-1.58-.59-1.78-.39-3.06-.39-3.41-.69.35-.74.89-1.14,1.53-1.78,1.93-.69,2.02-.69,2.96,0,.89-.69.89-.74.99-1.52,1.09-1,1.63-1.44,2.47-1.43,2.17-1.68,2.57-1.14,2.27-1.14,3.06-.94,2.27-.94,2.76.54,1.04.74,1.33.05,2.42.15,2.96-.3,1.18-.3,1.33.25.69.15,1,.15,2.55.15,2.85-.49,1.33-.49,1.83.25,1.43.25,1.97-.64,1.48-.94,1.68-.25.64-.05,1.53-.49,1.43-.64,1.43-.05.49-.05,1.53.49.94.69,1.09-.1,1.18-.1,1.48-1.04.94-1.13.94-.35,1.68-.55,2.37-1.18,1.38-1.18,1.97-.64.89-.64,1.38.05,1.83.05,2.17.3-.35.39,1.43-.3,2.07-.44,2.72-1.28,1.33-1.48,1.33-.39,1.48-.39,2.47-1.04,1.09-1.04,1.09c0,0-.05.49-.39,1.38s-.49.69-.49.69c0,0-.54.3-.59.69s.4.94.55,1.04"
    />

</svg>